<svg id="visual" viewBox="0 0 900 600" width="900" height="600" xmlns="http://www.w3.org/2000/svg" xmlns:xlink="http://www.w3.org/1999/xlink" version="1.1"><path d="M0 520L15 514.8C30 509.7 60 499.3 90 496.7C120 494 150 499 180 503.7C210 508.3 240 512.7 270 510.7C300 508.7 330 500.3 360 503C390 505.7 420 519.3 450 526.2C480 533 510 533 540 534.8C570 536.7 600 540.3 630 541.2C660 542 690 540 720 532C750 524 780 510 810 504.3C840 498.7 870 501.3 885 502.7L900 504L900 601L885 601C870 601 840 601 810 601C780 601 750 601 720 601C690 601 660 601 630 601C600 601 570 601 540 601C510 601 480 601 450 601C420 601 390 601 360 601C330 601 300 601 270 601C240 601 210 601 180 601C150 601 120 601 90 601C60 601 30 601 15 601L0 601Z" fill="#FFFFFF" stroke-linecap="round" stroke-linejoin="miter"></path></svg>